<?xml version="1.0" encoding="UTF-8"?>
<!-- Generator: visioncortex VTracer 0.6.3 -->
<svg version="1.1" xmlns="http://www.w3.org/2000/svg" width="1280" height="1093">
<path d="M0 0 C4.88 2.63 4.88 2.63 6 6 C6.99 6.33 7.98 6.66 9 7 C12.38 10.09 15.34 13.51 18.38 16.94 C21.5 20.43 24.64 23.62 28.3 26.55 C30.67 28.57 32.81 30.79 35 33 C35.84 33.83 36.67 34.65 37.54 35.5 C38.37 36.33 39.2 37.15 40.06 38 C40.9 38.83 41.74 39.65 42.6 40.5 C44.9 42.9 46.95 45.39 49 48 C52.49 51.69 56.26 54.99 60.09 58.32 C62.5 60.45 64.75 62.7 67 65 C67.64 65.63 68.28 66.26 68.94 66.91 C72.55 70.46 75.88 74.01 79 78 C81.55 80.69 84.12 83.1 87 85.44 C89.55 87.62 91.51 89.79 93.59 92.4 C95.24 94.27 97.04 95.83 98.94 97.44 C102.18 100.19 104.87 103.1 107.56 106.38 C108.98 107.98 110.45 109.29 112.12 110.62 C115 113 115 113 116.88 115.38 C119.33 118.41 122.09 120.77 125.05 123.3 C127.49 125.42 129.75 127.69 132 130 C132.8 130.78 133.61 131.57 134.44 132.38 C136.37 134.35 138.12 136.32 139.88 138.44 C142.47 141.52 145.31 144.04 148.41 146.6 C150.57 148.5 152.21 150.75 154 153 C155.07 153.92 156.15 154.81 157.25 155.69 C158.16 156.45 159.07 157.21 160 158 C160 158.66 160 159.32 160 160 C160.6 160.26 161.2 160.52 161.82 160.79 C164.15 162.08 165.3 163.29 166.94 165.38 C169.38 168.36 171.97 170.61 175 173 C176.33 174.67 177.67 176.33 179 178 C180.65 179.35 182.32 180.69 184 182 C185.68 183.66 187.34 185.32 189 187 C189.8 187.79 190.6 188.58 191.43 189.39 C195.32 193.24 199.14 197.08 202.69 201.25 C205.38 204.4 208.26 207.01 211.45 209.64 C213 211 213 211 214.94 213.44 C216.82 215.78 218.66 217.5 220.94 219.44 C224.4 222.4 227.15 225.46 230 229 C231.65 230.69 233.31 232.35 235 234 C235.76 234.78 236.53 235.57 237.31 236.38 C239.49 238.5 241.7 240.51 244 242.5 C249.2 247.02 253.8 251.88 258.3 257.08 C260.44 259.49 262.69 261.75 265 264 C265.83 264.85 266.65 265.69 267.5 266.56 C269.91 269 269.91 269 272.44 270.88 C274.56 272.63 276.08 274.21 277.81 276.31 C280.63 279.71 283.77 282.46 287.12 285.31 C289.71 287.64 291.78 290.33 294 293 C295.73 294.57 297.51 296.07 299.3 297.56 C301.68 299.57 303.83 301.77 306 304 C306.87 304.87 307.73 305.73 308.62 306.62 C309.41 307.41 310.19 308.19 311 309 C311.9 309.84 311.9 309.84 312.81 310.69 C314 312 314 312 314 314 C314.84 314.34 314.84 314.34 315.69 314.69 C320.13 317.21 323.21 321.23 326.5 325.06 C328.43 327.3 330.18 329.15 332.5 331 C336.13 333.9 339.11 337.37 342 341 C342 341.33 342 341.66 342 342 C321.42 342.16 300.85 342.29 280.27 342.36 C270.72 342.4 261.17 342.45 251.61 342.53 C243.28 342.6 234.95 342.64 226.62 342.66 C222.21 342.67 217.81 342.69 213.4 342.74 C209.24 342.79 205.09 342.8 200.94 342.79 C199.42 342.79 197.9 342.81 196.38 342.83 C188.15 342.97 182.08 342.66 175.75 336.87 C173.41 334.37 171.11 331.84 168.91 329.2 C164.98 324.67 160.63 320.53 156.38 316.31 C155.45 315.39 154.52 314.47 153.56 313.51 C151.84 311.8 150.11 310.08 148.38 308.37 C145.92 305.92 143.46 303.46 141 301 C140.08 300.08 139.16 299.16 138.22 298.22 C87.87 247.87 87.87 247.87 86.4 246.4 C85.09 245.09 83.79 243.79 82.48 242.49 C80.24 240.24 78.01 238 75.78 235.75 C73.61 233.57 71.44 231.39 69.27 229.22 C68.13 228.07 67 226.93 65.86 225.78 C64.2 224.11 62.54 222.45 60.88 220.78 C60.38 220.28 59.88 219.77 59.36 219.25 C56.94 216.83 54.49 214.54 51.84 212.37 C49.51 210.42 47.62 208.59 45.69 206.26 C41.67 201.55 37.33 197.18 32.94 192.81 C32.16 192.03 31.38 191.25 30.58 190.45 C27.37 187.24 24.17 184.06 20.65 181.19 C18.36 179.3 16.51 177.47 14.62 175.19 C12.07 172.22 9.5 169.29 6.81 166.44 C5.86 165.41 5.86 165.41 4.89 164.37 C3.13 162.77 3.13 162.77 1.11 163.21 C-1.42 164.16 -2.7 165.33 -4.6 167.24 C-5.3 167.94 -5.99 168.63 -6.71 169.35 C-7.46 170.11 -8.22 170.88 -8.99 171.67 C-9.8 172.47 -10.6 173.28 -11.42 174.1 C-14.08 176.77 -16.73 179.44 -19.37 182.11 C-21.21 183.96 -23.06 185.81 -24.9 187.66 C-29.26 192.04 -33.62 196.42 -37.97 200.81 C-46.22 209.13 -54.49 217.43 -62.75 225.73 C-65.46 228.46 -68.17 231.19 -70.88 233.92 C-72.55 235.59 -74.21 237.27 -75.88 238.94 C-77 240.08 -77 240.08 -78.16 241.25 C-81.63 244.73 -85.09 248 -89 251 C-90.14 252.22 -91.25 253.47 -92.32 254.75 C-96 259.05 -99.92 263.07 -103.94 267.06 C-104.6 267.73 -105.27 268.4 -105.95 269.09 C-109.26 272.39 -112.62 275.58 -116.17 278.64 C-119.49 281.5 -122.4 284.48 -125.31 287.75 C-131.78 294.93 -138.39 302.04 -145.81 308.25 C-150.53 312.26 -154.63 316.85 -158.81 321.41 C-163.97 327.02 -169.17 332.58 -175 337.5 C-180.19 341.99 -184.95 346.74 -189.44 351.94 C-194.24 357.49 -199.37 362.64 -204.94 367.44 C-210.79 372.49 -216.23 377.91 -221.25 383.79 C-225.03 388.14 -229.14 392.04 -233.38 395.94 C-234.88 397.34 -236.39 398.75 -237.89 400.15 C-238.6 400.82 -239.32 401.48 -240.05 402.17 C-245.05 406.86 -249.88 411.64 -254.31 416.88 C-257.61 420.71 -261.26 424.05 -265.02 427.43 C-271.32 433.13 -277.27 439.19 -283.25 445.23 C-288.41 450.44 -293.61 455.6 -298.81 460.77 C-307.74 469.64 -316.65 478.52 -325.56 487.41 C-330.95 492.78 -336.35 498.15 -341.75 503.52 C-346.47 508.21 -351.19 512.91 -355.9 517.61 C-358.39 520.1 -360.88 522.58 -363.38 525.06 C-366.16 527.82 -368.93 530.59 -371.7 533.36 C-372.53 534.18 -373.36 535 -374.22 535.85 C-374.97 536.6 -375.72 537.36 -376.5 538.14 C-377.15 538.79 -377.81 539.44 -378.49 540.12 C-380.11 542.14 -380.75 543.42 -381 546 C-379.43 548.28 -379.43 548.28 -377.08 550.44 C-376.24 551.27 -375.4 552.1 -374.53 552.96 C-373.18 554.25 -373.18 554.25 -371.81 555.56 C-370.94 556.43 -370.06 557.29 -369.15 558.18 C-364.64 562.65 -364.64 562.65 -359.71 566.64 C-359.15 567.09 -358.58 567.54 -358 568 C-358 568.66 -358 569.32 -358 570 C-357.01 570.33 -356.02 570.66 -355 571 C-353.45 572.56 -353.45 572.56 -351.81 574.56 C-348.09 578.94 -344.14 583.01 -340.06 587.06 C-339.4 587.73 -338.73 588.4 -338.05 589.09 C-334.09 593.04 -330.03 596.79 -325.77 600.41 C-324 602 -322.47 603.68 -320.94 605.5 C-317.33 609.75 -313.44 613.68 -309.5 617.62 C-308.56 618.58 -308.56 618.58 -307.59 619.54 C-304.65 622.48 -301.68 625.31 -298.47 627.96 C-295.25 630.66 -292.6 633.67 -289.88 636.86 C-286.43 640.79 -282.7 644.44 -279 648.12 C-278.23 648.9 -277.46 649.67 -276.67 650.46 C-273.34 653.79 -270.01 657.05 -266.38 660.05 C-263.17 662.74 -260.52 665.74 -257.81 668.92 C-254.71 672.48 -251.35 675.79 -248 679.12 C-247.33 679.8 -246.65 680.48 -245.96 681.18 C-242.74 684.39 -239.5 687.46 -236 690.37 C-235.01 691.24 -234.02 692.1 -233 693 C-233 693.66 -233 694.32 -233 695 C-232.34 695 -231.68 695 -231 695 C-229.77 696.26 -229.77 696.26 -228.25 698.12 C-220.85 706.83 -212.58 714.95 -203.85 722.32 C-202.01 723.99 -200.44 725.73 -198.84 727.62 C-194.77 732.34 -190.41 736.73 -186 741.12 C-185.23 741.9 -184.46 742.67 -183.67 743.46 C-179.73 747.4 -175.73 751.15 -171.47 754.72 C-169.59 756.35 -168.01 758.14 -166.44 760.06 C-164.37 762.5 -162.48 764.43 -160 766.5 C-157.55 768.54 -155.72 770.41 -153.69 772.81 C-150.54 776.51 -147.13 779.64 -143.41 782.75 C-141.38 784.65 -139.62 786.55 -137.82 788.64 C-133.58 793.55 -129.03 798.12 -124.44 802.69 C-123.61 803.52 -122.79 804.34 -121.94 805.2 C-117.07 810.08 -117.07 810.08 -111.85 814.58 C-108.85 817.13 -106.43 819.87 -103.88 822.85 C-100.57 826.63 -97 830.15 -93.44 833.69 C-92.71 834.42 -91.98 835.15 -91.23 835.91 C-88.08 839.05 -84.95 842.11 -81.47 844.89 C-80.66 845.59 -79.84 846.28 -79 847 C-79 847.66 -79 848.32 -79 849 C-78.34 849 -77.68 849 -77 849 C-75.57 850.44 -75.57 850.44 -73.91 852.46 C-69.97 857.09 -65.75 861.4 -61.44 865.69 C-60.71 866.42 -59.98 867.15 -59.23 867.91 C-56.21 870.92 -53.22 873.82 -49.91 876.52 C-46.89 879.09 -44.45 881.84 -41.88 884.85 C-38.59 888.61 -35.04 892.11 -31.5 895.62 C-30.78 896.35 -30.06 897.07 -29.32 897.82 C-25.5 901.63 -21.61 905.25 -17.48 908.71 C-15.64 910.32 -14.06 912.06 -12.5 913.94 C-10.16 916.67 -7.8 919.35 -5.31 921.94 C-4.77 922.5 -4.23 923.07 -3.68 923.65 C-1.71 925.23 -0.5 925.7 2 926 C3.74 925 3.74 925 5.28 923.33 C6.23 922.4 6.23 922.4 7.19 921.45 C7.88 920.75 8.56 920.05 9.26 919.33 C10.36 918.24 10.36 918.24 11.48 917.12 C13.95 914.66 16.4 912.18 18.85 909.7 C20.61 907.93 22.37 906.17 24.14 904.41 C27.94 900.61 31.73 896.8 35.51 892.99 C40.99 887.47 46.47 881.96 51.97 876.46 C60.88 867.54 69.78 858.6 78.67 849.65 C87.31 840.97 95.95 832.28 104.59 823.61 C105.12 823.07 105.66 822.54 106.21 821.99 C112.02 816.16 117.83 810.33 123.64 804.5 C125.18 802.95 126.72 801.41 128.26 799.86 C129.27 798.84 130.29 797.83 131.31 796.81 C137.77 790.32 144.24 783.83 150.7 777.33 C154.4 773.61 158.1 769.89 161.8 766.18 C163.52 764.45 165.24 762.72 166.97 760.98 C169.3 758.63 171.65 756.27 173.99 753.92 C175.02 752.88 175.02 752.88 176.08 751.82 C176.7 751.19 177.33 750.57 177.97 749.92 C178.51 749.38 179.05 748.83 179.61 748.27 C182.62 745.52 185.23 745.87 189.19 745.87 C189.83 745.87 190.47 745.87 191.13 745.87 C193.29 745.86 195.45 745.87 197.61 745.87 C199.15 745.87 200.7 745.87 202.24 745.87 C206.44 745.86 210.64 745.86 214.84 745.87 C219.23 745.87 223.62 745.87 228.01 745.86 C235.38 745.86 242.75 745.86 250.12 745.87 C258.65 745.88 267.18 745.87 275.71 745.87 C283.03 745.86 290.34 745.86 297.65 745.87 C302.03 745.87 306.4 745.87 310.77 745.86 C314.88 745.86 318.99 745.86 323.11 745.87 C324.62 745.87 326.13 745.87 327.64 745.87 C329.7 745.86 331.76 745.87 333.81 745.87 C334.97 745.87 336.12 745.87 337.31 745.87 C340 746 340 746 342 747 C340.39 751.02 337.55 753.71 334.53 756.7 C333.97 757.26 333.41 757.82 332.84 758.39 C330.99 760.23 329.14 762.07 327.29 763.9 C326.01 765.18 324.72 766.47 323.44 767.75 C320.05 771.13 316.66 774.5 313.27 777.87 C309.83 781.29 306.39 784.71 302.96 788.14 C297.4 793.68 291.84 799.21 286.28 804.74 C281.35 809.64 276.44 814.56 271.54 819.49 C269.97 821.08 268.39 822.66 266.81 824.25 C265.73 825.33 264.66 826.41 263.58 827.49 C258.08 833.04 252.56 838.5 246.62 843.58 C244.47 845.46 242.61 847.52 240.75 849.69 C234.33 856.96 227.58 864.09 220.12 870.31 C214.75 874.88 210.12 880.23 205.34 885.4 C200.53 890.61 195.64 895.64 190.24 900.22 C186.05 903.87 182.31 907.84 178.56 911.94 C173.06 917.89 167.39 923.56 161.44 929.06 C155.13 934.89 149.21 940.95 143.39 947.27 C138.5 952.55 133.34 957.43 128 962.26 C122.24 967.48 116.69 972.92 111.69 978.88 C108.17 982.99 104.2 986.58 100.2 990.21 C96.04 994.01 91.99 997.9 88 1001.88 C87.47 1002.4 86.95 1002.92 86.4 1003.46 C83.99 1005.88 81.77 1008.28 79.62 1010.95 C77.81 1013.16 75.91 1014.98 73.72 1016.82 C67.13 1022.53 61.07 1028.79 54.91 1034.96 C53.56 1036.31 52.2 1037.66 50.85 1039.02 C48.03 1041.84 45.21 1044.66 42.39 1047.48 C38.77 1051.1 35.15 1054.72 31.53 1058.34 C28.74 1061.12 25.95 1063.91 23.17 1066.7 C21.83 1068.04 20.5 1069.37 19.16 1070.71 C17.3 1072.56 15.44 1074.42 13.59 1076.28 C13.03 1076.84 12.48 1077.39 11.91 1077.96 C9.11 1080.72 9.11 1080.72 7 1084 C4.9 1084.13 2.79 1084.23 0.69 1084.31 C-0.48 1084.37 -1.66 1084.43 -2.86 1084.49 C-6 1084 -6 1084 -7.71 1081.7 C-8.14 1080.81 -8.56 1079.92 -9 1079 C-10.58 1077.14 -10.58 1077.14 -12.31 1075.5 C-13.23 1074.6 -13.23 1074.6 -14.18 1073.68 C-15.73 1072.25 -17.36 1070.9 -19 1069.56 C-21.36 1067.55 -23.18 1065.71 -25.16 1063.38 C-29.06 1058.87 -33.21 1054.64 -37.44 1050.44 C-38.51 1049.36 -38.51 1049.36 -39.6 1048.27 C-43 1044.87 -46.43 1041.59 -50.1 1038.47 C-53.46 1035.58 -56.31 1032.46 -59.17 1029.09 C-62.52 1025.26 -66.15 1021.71 -69.75 1018.12 C-70.5 1017.37 -71.26 1016.61 -72.04 1015.83 C-72.76 1015.1 -73.49 1014.38 -74.23 1013.63 C-74.89 1012.98 -75.54 1012.33 -76.21 1011.66 C-78.1 1009.82 -78.1 1009.82 -81 1008 C-81 1007.34 -81 1006.68 -81 1006 C-81.58 1005.76 -82.16 1005.52 -82.76 1005.27 C-85.42 1003.76 -86.89 1002.08 -88.88 999.75 C-92.81 995.26 -96.9 990.97 -101.12 986.75 C-101.7 986.17 -102.27 985.59 -102.86 985 C-105.65 982.22 -108.46 979.58 -111.49 977.08 C-114.71 974.36 -117.38 971.36 -120.11 968.16 C-123.63 964.13 -127.46 960.4 -131.25 956.62 C-132.05 955.82 -132.85 955.01 -133.68 954.18 C-134.45 953.41 -135.22 952.64 -136.02 951.85 C-136.71 951.16 -137.4 950.47 -138.12 949.75 C-140.08 947.83 -140.08 947.83 -143 946 C-143 945.34 -143 944.68 -143 944 C-143.58 943.76 -144.17 943.51 -144.77 943.26 C-147.39 941.78 -148.81 940.17 -150.75 937.88 C-155.08 932.94 -159.61 928.27 -164.25 923.62 C-164.94 922.94 -165.62 922.25 -166.33 921.53 C-169.75 918.12 -173.21 915 -177 912 C-178.14 910.76 -179.24 909.49 -180.31 908.19 C-182.72 905.37 -185.17 902.89 -188 900.5 C-190.72 898.2 -193.08 895.85 -195.38 893.12 C-198.79 889.09 -202.62 885.71 -206.58 882.23 C-209.42 879.61 -211.87 876.78 -214.36 873.83 C-216.47 871.48 -218.82 869.56 -221.26 867.55 C-223.15 865.87 -224.74 864.06 -226.38 862.12 C-228.9 859.15 -231.54 856.55 -234.5 854 C-238.11 850.88 -241.18 847.58 -244.25 843.93 C-246.05 841.94 -247.95 840.23 -250 838.5 C-252.72 836.2 -255.08 833.85 -257.38 831.12 C-260.79 827.09 -264.62 823.71 -268.58 820.23 C-271.42 817.61 -273.87 814.78 -276.36 811.83 C-278.47 809.48 -280.82 807.56 -283.26 805.55 C-285.15 803.87 -286.74 802.06 -288.38 800.12 C-290.9 797.15 -293.54 794.55 -296.5 792 C-300.09 788.9 -303.13 785.62 -306.19 782 C-308.16 779.82 -310.27 777.93 -312.5 776 C-316.09 772.9 -319.13 769.62 -322.19 766 C-324.84 763.07 -327.83 760.58 -330.81 758 C-333.54 755.5 -335.87 752.76 -338.25 749.93 C-340.64 747.29 -343.32 745.08 -346.03 742.78 C-348.68 740.38 -350.91 737.7 -353.22 734.97 C-355.62 732.32 -358.3 730.09 -361.03 727.79 C-363.05 725.96 -364.76 724.03 -366.5 721.94 C-368.86 719.14 -371.2 716.99 -374.19 714.88 C-377.75 712.35 -379.62 709.69 -382 706 C-383.7 704.39 -385.47 702.91 -387.28 701.42 C-391.25 698.14 -394.58 694.33 -397.94 690.44 C-400.26 687.78 -402.09 685.94 -405.06 684 C-407.92 682.06 -409.23 680.55 -411.25 677.81 C-414.57 673.33 -418.37 669.85 -422.58 666.2 C-424.84 664.15 -426.79 662.03 -428.75 659.69 C-430.79 657.25 -432.21 655.86 -434.94 654.12 C-438.78 651.46 -441.09 648.21 -443.93 644.52 C-446.39 641.53 -449.1 639.17 -452.07 636.71 C-454.07 634.94 -455.73 633.06 -457.44 631 C-459.92 628.05 -462.46 625.78 -465.56 623.5 C-469.34 620.69 -471.81 617.8 -474.48 613.96 C-476.62 611.2 -479.19 609.14 -481.86 606.92 C-484.29 604.74 -486.37 602.39 -488.5 599.94 C-491.82 596.15 -495.17 593.2 -499.27 590.31 C-501.65 588.51 -503.35 586.47 -505 584 C-505 583.34 -505 582.68 -505 582 C-505.55 581.78 -506.1 581.56 -506.66 581.33 C-509.74 579.58 -512 577.21 -514.44 574.69 C-514.9 574.21 -515.37 573.74 -515.85 573.25 C-517.23 571.84 -518.62 570.42 -520 569 C-522.86 566.09 -525.74 563.31 -528.88 560.69 C-532.4 557.64 -535.46 554.36 -538.46 550.8 C-539.95 548.96 -539.95 548.96 -541.76 547.52 C-542.17 547.02 -542.58 546.52 -543 546 C-542.6 542.39 -541.04 540.66 -538.52 538.14 C-537.77 537.39 -537.01 536.63 -536.24 535.84 C-534.98 534.6 -534.98 534.6 -533.7 533.33 C-532.82 532.44 -531.93 531.55 -531.02 530.63 C-528.55 528.15 -526.07 525.68 -523.58 523.21 C-520.89 520.53 -518.21 517.83 -515.52 515.14 C-510.81 510.42 -506.09 505.71 -501.37 501 C-494.34 493.99 -487.33 486.97 -480.32 479.96 C-468.52 468.15 -456.72 456.36 -444.91 444.56 C-433.21 432.88 -421.51 421.19 -409.82 409.5 C-409.09 408.77 -408.37 408.04 -407.62 407.3 C-404.67 404.35 -401.72 401.4 -398.77 398.45 C-371.87 371.55 -344.97 344.66 -318.06 317.78 C-292.65 292.39 -267.25 267.01 -241.85 241.61 C-241.07 240.83 -240.29 240.05 -239.48 239.24 C-236.33 236.09 -233.18 232.94 -230.03 229.79 C-228.45 228.22 -226.88 226.64 -225.31 225.07 C-223.74 223.51 -222.18 221.94 -220.61 220.37 C-195.65 195.42 -170.69 170.46 -145.72 145.51 C-138.41 138.21 -131.1 130.9 -123.79 123.59 C-108.41 108.22 -93.03 92.85 -77.65 77.48 C-71.29 71.12 -64.92 64.76 -58.56 58.4 C-53.29 53.13 -48.01 47.86 -42.74 42.59 C-40.08 39.94 -37.42 37.28 -34.77 34.63 C-31.91 31.77 -29.05 28.91 -26.18 26.05 C-25.36 25.23 -24.54 24.4 -23.69 23.56 C-19.47 19.35 -15.18 15.31 -10.65 11.44 C-8.62 9.67 -6.85 7.75 -5.12 5.69 C-3.46 3.71 -1.83 1.83 0 0 Z " fill="#44B753" transform="translate(552,9)"/>
<path d="M0 0 C4.05 1.51 6.43 3.07 9.47 6.18 C10.29 7 11.11 7.83 11.95 8.69 C12.79 9.55 13.63 10.42 14.5 11.31 C15.34 12.17 16.18 13.02 17.05 13.9 C18.63 15.51 20.2 17.11 21.77 18.72 C23.24 20.22 24.73 21.69 26.26 23.13 C28.36 25.33 30.07 27.37 31.83 29.81 C42.93 45.21 56 61.13 75.51 64.74 C91.52 66.87 107.78 66.42 123.89 65.92 C131.75 65.69 139.6 65.67 147.46 65.65 C161.47 65.62 175.47 65.44 189.48 65.14 C203.06 64.86 216.63 64.65 230.21 64.55 C231.48 64.54 231.48 64.54 232.76 64.53 C236.99 64.5 241.21 64.47 245.44 64.44 C280.3 64.19 315.15 63.68 350 63 C350.2 62.4 350.39 61.79 350.6 61.17 C350.86 60.37 351.12 59.57 351.39 58.75 C351.65 57.96 351.91 57.17 352.18 56.36 C356.03 45.35 361.98 35.45 370 27 C370.74 26.22 371.47 25.45 372.23 24.64 C379.21 17.85 387.42 13.44 396 9 C396.67 8.65 397.35 8.29 398.04 7.93 C402.15 5.8 406.17 4.14 410.62 2.81 C411.69 2.49 412.75 2.17 413.85 1.83 C420.74 0.01 427.23 -0.15 434.31 -0.12 C435.33 -0.13 436.34 -0.13 437.38 -0.14 C438.35 -0.14 439.31 -0.13 440.3 -0.13 C441.18 -0.13 442.06 -0.13 442.96 -0.13 C445 0 445 0 446 1 C447.39 1.11 448.79 1.19 450.19 1.25 C460.81 2.29 469.97 6.71 479.06 12 C479.78 12.41 480.49 12.83 481.23 13.26 C485.38 15.76 488.67 18.42 492 22 C493.04 22.97 493.04 22.97 494.11 23.96 C512.23 41.13 520.46 62.06 522.19 86.68 C522.78 108.85 515.65 130.99 500.69 147.56 C499.8 148.37 498.91 149.17 498 150 C497.33 150.65 496.65 151.31 495.96 151.98 C478.9 168.12 458.83 176.64 435.19 176.44 C433.96 176.43 432.74 176.42 431.48 176.42 C422.03 176.25 413.92 175.1 405 172 C403.92 171.68 402.83 171.37 401.71 171.04 C391.73 167.8 384.04 161.53 376 155 C375.45 154.56 374.9 154.13 374.33 153.68 C371.18 151.14 368.58 148.52 366.12 145.31 C365.53 144.55 364.93 143.78 364.32 142.99 C363 141 363 141 363 139 C362.34 139 361.68 139 361 139 C355.25 131.64 352.42 122.54 349 114 C234.16 113.5 234.16 113.5 117 113 C122.41 119.23 122.41 119.23 128.05 125.18 C128.77 125.9 129.49 126.62 130.23 127.37 C131 128.13 131.76 128.89 132.55 129.68 C133.38 130.51 134.2 131.33 135.05 132.19 C137.76 134.89 140.46 137.6 143.17 140.3 C145.06 142.19 146.95 144.08 148.84 145.97 C152.78 149.92 156.73 153.87 160.68 157.81 C165.24 162.37 169.8 166.93 174.36 171.49 C178.28 175.42 182.21 179.34 186.13 183.27 C188.48 185.61 190.82 187.95 193.16 190.29 C195.76 192.9 198.36 195.5 200.97 198.1 C202.13 199.26 202.13 199.26 203.31 200.45 C204.02 201.15 204.73 201.86 205.46 202.59 C206.07 203.2 206.69 203.82 207.32 204.45 C210.91 207.77 213.07 208.25 217.84 208.25 C219.67 208.25 219.67 208.25 221.55 208.26 C222.91 208.25 224.28 208.25 225.65 208.24 C227.09 208.24 228.54 208.24 229.99 208.25 C233.97 208.25 237.95 208.24 241.94 208.23 C246.23 208.22 250.52 208.23 254.82 208.23 C262.26 208.23 269.7 208.22 277.14 208.21 C287.89 208.2 298.65 208.19 309.41 208.19 C326.86 208.18 344.31 208.17 361.76 208.15 C378.72 208.13 395.67 208.12 412.63 208.11 C413.67 208.11 414.72 208.11 415.79 208.11 C421.03 208.11 426.28 208.1 431.52 208.1 C475.01 208.08 518.51 208.04 562 208 C562.28 207.4 562.55 206.8 562.84 206.19 C564.11 203.44 565.39 200.7 566.68 197.96 C567.33 196.55 567.33 196.55 567.99 195.11 C571.74 187.13 576.16 180.6 582 174 C582.57 173.33 583.14 172.66 583.73 171.98 C597.29 157.21 619.25 147 639.21 145.88 C664.98 145.06 687.18 151.73 706.88 168.81 C715.14 176.74 721.74 185.75 726.94 195.95 C727.84 197.94 727.84 197.94 729 199 C729.14 201.13 729.2 203.27 729.24 205.41 C729.25 206.08 729.27 206.75 729.28 207.44 C729.41 214.51 729.46 221.57 729.51 228.64 C729.54 231.98 729.59 235.32 729.66 238.66 C729.74 242.71 729.78 246.76 729.8 250.81 C729.81 252.34 729.84 253.87 729.88 255.4 C730.32 273.08 721.84 284.37 710 297 C693.31 313.89 671.31 322.16 647.88 322.44 C622.39 322.54 601.56 313.23 583.31 295.56 C573.08 284.97 565.99 273.2 562 259 C517.8 258.97 473.61 258.97 429.41 259.02 C424.19 259.03 418.97 259.04 413.76 259.04 C412.72 259.04 411.68 259.05 410.61 259.05 C393.79 259.06 376.97 259.06 360.15 259.04 C342.89 259.03 325.63 259.04 308.38 259.07 C297.73 259.09 287.08 259.09 276.43 259.07 C269.12 259.05 261.82 259.06 254.52 259.09 C250.31 259.11 246.09 259.11 241.88 259.09 C238.02 259.07 234.16 259.07 230.3 259.11 C228.91 259.12 227.51 259.11 226.12 259.09 C217.02 258.96 217.02 258.96 209.35 263.33 C208.21 264.53 207.09 265.75 206 267 C204.75 268.22 203.5 269.44 202.24 270.65 C200.93 271.96 199.62 273.27 198.32 274.58 C197.24 275.67 197.24 275.67 196.13 276.77 C194.58 278.33 193.03 279.89 191.48 281.45 C189.02 283.92 186.56 286.38 184.1 288.85 C178.88 294.08 173.66 299.32 168.44 304.56 C162.38 310.64 156.33 316.72 150.27 322.79 C147.85 325.21 145.44 327.64 143.02 330.06 C141.53 331.56 140.04 333.05 138.55 334.55 C137.89 335.21 137.23 335.88 136.54 336.57 C133.06 340.05 129.53 343.32 125.66 346.36 C123.36 348.52 123.36 348.52 120 354 C233.85 354.5 233.85 354.5 350 355 C351.49 350.05 351.49 350.05 353 345 C363.1 321.83 381.2 306.19 404.33 296.62 C426.71 288.67 451.4 290.46 473 300 C475.03 301.28 477.03 302.62 479 304 C479.8 304.53 480.6 305.06 481.42 305.61 C501.53 319.27 515.61 338.02 520.4 361.99 C524.46 384.99 521.56 410.49 508 430 C500.46 440.42 491.86 449.09 481 456 C480.33 456.45 479.66 456.9 478.96 457.37 C459.13 469.67 432.42 469.96 410.39 465.22 C397.47 461.88 387.03 455.68 377 447 C375.9 446.11 375.9 446.11 374.77 445.21 C364.45 436.64 357.43 426.75 352.16 414.52 C351.75 413.6 351.35 412.68 350.93 411.73 C349.95 409.49 348.97 407.25 348 405 C312.47 404.84 276.93 404.72 241.4 404.64 C237.2 404.63 233.01 404.62 228.81 404.62 C227.98 404.61 227.14 404.61 226.28 404.61 C212.76 404.58 199.23 404.52 185.71 404.46 C171.84 404.39 157.96 404.36 144.08 404.34 C135.52 404.33 126.96 404.3 118.4 404.24 C112.52 404.21 106.65 404.2 100.78 404.21 C97.39 404.21 94.01 404.2 90.62 404.17 C86.94 404.13 83.27 404.14 79.59 404.16 C77.99 404.13 77.99 404.13 76.36 404.1 C69.79 404.19 66.35 405.45 61.67 410.13 C61.12 410.74 60.57 411.36 60 412 C59.41 412.66 58.81 413.33 58.2 414.01 C57.1 415.28 56 416.55 54.91 417.83 C49.36 424.14 43.24 429.88 36.87 435.36 C32.44 439.25 28.41 443.48 24.56 447.94 C7.73 467.4 7.73 467.4 1 468 C-1.09 466.61 -1.09 466.61 -3.39 464.42 C-4.27 463.59 -5.14 462.76 -6.05 461.9 C-7.03 460.94 -8.02 459.97 -9 459 C-9.53 458.48 -10.06 457.97 -10.6 457.43 C-14.7 453.4 -18.76 449.33 -22.81 445.25 C-24.03 444.03 -25.24 442.81 -26.45 441.6 C-28.67 439.37 -30.89 437.14 -33.11 434.9 C-35.74 432.26 -38.37 429.63 -41 427 C-69.67 398.33 -98.33 369.67 -127 341 C-127.82 340.18 -128.64 339.36 -129.49 338.52 C-131.8 336.2 -134.1 333.89 -136.4 331.57 C-138.67 329.29 -140.94 327.01 -143.21 324.73 C-144.4 323.54 -145.6 322.34 -146.79 321.14 C-148.52 319.39 -150.26 317.65 -152 315.9 C-152.53 315.37 -153.05 314.84 -153.6 314.29 C-156.59 311.3 -159.7 308.64 -163 306 C-164.12 304.81 -165.2 303.58 -166.25 302.32 C-170.3 297.59 -174.65 293.2 -179.06 288.81 C-180.23 287.64 -180.23 287.64 -181.42 286.45 C-186.1 281.76 -186.1 281.76 -191.12 277.45 C-194.12 274.9 -196.54 272.17 -199.09 269.18 C-202.56 265.22 -206.33 261.53 -210.06 257.81 C-211.23 256.64 -211.23 256.64 -212.42 255.45 C-215.61 252.26 -218.77 249.11 -222.29 246.28 C-225.06 243.95 -227.16 241.55 -229.38 238.69 C-230.06 237.8 -230.75 236.92 -231.46 236.01 C-231.97 235.35 -232.48 234.68 -233 234 C-228.18 228.2 -223 222.86 -217.66 217.54 C-216.26 216.14 -216.26 216.14 -214.84 214.71 C-212.26 212.14 -209.69 209.57 -207.11 207 C-204.33 204.22 -201.55 201.44 -198.77 198.66 C-193.96 193.84 -189.14 189.03 -184.33 184.22 C-177.36 177.27 -170.4 170.31 -163.44 163.35 C-152.15 152.06 -140.86 140.77 -129.56 129.49 C-118.59 118.53 -107.62 107.56 -96.66 96.6 C-95.98 95.92 -95.3 95.25 -94.61 94.55 C-91.21 91.16 -87.82 87.77 -84.42 84.37 C-56.29 56.25 -28.14 28.12 0 0 Z M403.25 65.31 C396.47 74.48 393.91 83.67 395 95 C397.47 106.33 402.9 115.02 412.45 121.72 C422.44 127.25 433.91 127.94 445 126 C455.91 122.87 463.51 115.41 469.4 105.98 C473.98 97.43 474.3 86.83 471.95 77.49 C467.61 66.07 460.42 57.39 449.5 52.06 C432.45 45.58 414.64 51.47 403.25 65.31 Z M-2.62 73.38 C-3.11 73.88 -3.6 74.38 -4.1 74.89 C-4.62 75.41 -5.14 75.93 -5.68 76.47 C-7.4 78.2 -9.12 79.94 -10.83 81.67 C-12.03 82.87 -13.22 84.07 -14.42 85.28 C-17.58 88.45 -20.73 91.62 -23.88 94.8 C-28.91 99.87 -33.95 104.94 -38.99 110 C-40.74 111.77 -42.5 113.54 -44.25 115.31 C-45.34 116.41 -46.42 117.5 -47.51 118.59 C-47.99 119.08 -48.47 119.57 -48.97 120.08 C-51.83 122.94 -54.82 125.5 -58 128 C-59.14 129.22 -60.25 130.47 -61.32 131.75 C-65 136.05 -68.92 140.07 -72.94 144.06 C-73.6 144.73 -74.27 145.4 -74.95 146.09 C-78.26 149.39 -81.62 152.58 -85.17 155.63 C-88.51 158.51 -91.44 161.52 -94.38 164.81 C-100.53 171.65 -106.83 178.3 -113.83 184.29 C-118.03 187.94 -121.8 191.9 -125.56 196 C-137.78 209.25 -137.78 209.25 -144 214.5 C-147.85 217.83 -151.48 221.32 -155 225 C-155.67 225.69 -156.34 226.37 -157.03 227.08 C-157.68 227.77 -158.33 228.47 -159 229.19 C-159.9 230.14 -159.9 230.14 -160.81 231.11 C-162.22 232.91 -162.22 232.91 -161.73 234.93 C-160.47 238.49 -157.57 240.84 -154.93 243.44 C-153.97 244.41 -153.97 244.41 -152.99 245.39 C-150.84 247.56 -148.67 249.71 -146.51 251.87 C-144.96 253.41 -143.42 254.96 -141.88 256.51 C-137.68 260.72 -133.47 264.91 -129.26 269.11 C-124.87 273.49 -120.48 277.89 -116.09 282.28 C-108.72 289.65 -101.34 297.02 -93.96 304.38 C-86.36 311.96 -78.76 319.55 -71.17 327.14 C-62.04 336.29 -52.89 345.43 -43.74 354.56 C-40.25 358.06 -36.75 361.55 -33.26 365.05 C-29.15 369.16 -25.03 373.27 -20.91 377.37 C-19.4 378.88 -17.88 380.39 -16.37 381.91 C-14.32 383.96 -12.26 386.02 -10.19 388.07 C-9.59 388.67 -8.99 389.28 -8.36 389.91 C-5.68 392.98 -5.68 392.98 -2 394 C-1.73 394.64 -1.46 395.28 -1.19 395.94 C-0.11 398.33 -0.11 398.33 3 399 C56.79 345.21 110.58 291.42 166 236 C164.18 231.45 163.36 230.02 160 226.88 C157.61 224.62 155.84 222.76 154 220 C153.34 220 152.68 220 152 220 C151.67 219.01 151.34 218.02 151 217 C150.34 217 149.68 217 149 217 C149 216.34 149 215.68 149 215 C148.38 214.75 147.76 214.5 147.12 214.25 C144.65 212.79 144.05 211.62 143 209 C142.34 209 141.68 209 141 209 C140.67 208.01 140.34 207.02 140 206 C139.34 206 138.68 206 138 206 C137.67 205.01 137.34 204.02 137 203 C135.31 201.32 135.31 201.32 133.25 199.69 C129.74 196.72 126.94 193.54 124 190 C122.27 188.43 120.49 186.93 118.7 185.44 C115.38 182.63 112.48 179.62 109.81 176.19 C109.21 175.47 108.62 174.74 108 174 C107.34 174 106.68 174 106 174 C105.67 173.01 105.34 172.02 105 171 C103.37 169.39 103.37 169.39 101.38 167.81 C98.48 165.37 95.94 162.89 93.5 160 C90.54 156.5 87.32 153.6 83.84 150.65 C81.27 148.34 79.21 145.65 77 143 C74.98 141.18 72.92 139.42 70.85 137.66 C68.6 135.64 66.83 133.4 65 131 C62.06 127.81 58.97 125.2 55.5 122.62 C51.96 119.93 49.52 117.33 47.11 113.62 C45.38 111.1 43.21 109.1 41 107 C40.17 106.15 39.35 105.31 38.5 104.44 C36.07 101.99 36.07 101.99 33.5 100 C30.79 97.84 28.45 95.45 26 93 C25.03 92.24 24.06 91.47 23.06 90.69 C19.94 88.15 17.78 85.16 15.43 81.92 C11.96 77.28 7.55 73.54 3 70 C0.2 70 -0.72 71.49 -2.62 73.38 Z M616 210 C609.6 220.22 606.77 229.91 608 242 C611.7 254.21 617.41 261.94 628.38 268.25 C638.98 273.79 649.55 274.21 661 271 C671.36 267.12 678.02 259.76 683 250.04 C686.88 241.44 687.3 231.89 684 223 C678.59 210.08 672.22 202.44 659 197 C644.25 192.23 625.49 197.84 616 210 Z M405 354 C397.02 364.21 393.62 374.04 395 387 C397.34 397.04 402.37 405.85 410.93 411.72 C421.01 417.94 430.67 420.45 442.54 418.61 C453.49 415.91 462.01 408.33 468 399 C473.43 389.77 474.53 379.92 471.88 369.49 C468.22 359.12 463 350.76 453.22 345.51 C436.18 337.41 418.35 340.18 405 354 Z " fill="#44B753" transform="translate(551,319)"/>
<path d="" fill="#FBFDFD" transform="translate(0,0)"/>
<path d="" fill="#FBFDFD" transform="translate(0,0)"/>
<path d="" fill="#FBFDFD" transform="translate(0,0)"/>
<path d="M0 0 C2 1 2 1 2 1 Z " fill="#FBFDFD" transform="translate(991,787)"/>
<path d="M0 0 C2 1 2 1 2 1 Z " fill="#FBFDFD" transform="translate(978,787)"/>
<path d="" fill="#FBFDFD" transform="translate(0,0)"/>
<path d="M0 0 C2 1 2 1 2 1 Z " fill="#FBFDFD" transform="translate(1176,639)"/>
<path d="" fill="#FBFDFD" transform="translate(0,0)"/>
</svg>
